<svg id="Layer_1" data-name="Layer 1" xmlns="http://www.w3.org/2000/svg" viewBox="0 0 160 38.73"><defs><style>.cls-1{fill:#e62e04}.cls-2{fill:#f90}</style></defs><path class="cls-1" d="M130.08 14.53a8.62 8.62 0 0 0-3.33-.68 9.84 9.84 0 0 0-3.72.75 9.64 9.64 0 0 0-5.9 8.85 9.86 9.86 0 0 0 2.86 6.9 10 10 0 0 0 3.09 2.1 9.83 9.83 0 0 0 3.79.8h.11a9.68 9.68 0 0 0 7.28-3.42l-2.42-1.95a6.58 6.58 0 0 1-2.13 1.65 6.26 6.26 0 0 1-2.79.66 6.53 6.53 0 0 1-2.2-.39 6.81 6.81 0 0 1-1.89-1 7 7 0 0 1-1.45-1.57 6.86 6.86 0 0 1-.89-2v-.12h14.93v-2.67a8.62 8.62 0 0 0-.68-3.36 8.35 8.35 0 0 0-1.85-2.74 8.5 8.5 0 0 0-2.74-1.85m-9.73 7.55v-.12a6.42 6.42 0 0 1 6.24-4.91 5.48 5.48 0 0 1 5.41 4.99v.11zm-25.81-8.19a9.72 9.72 0 0 0-9.73 9.62v18.89h3.27V30.28a9.72 9.72 0 0 0 6.39 3h.07a9.73 9.73 0 0 0 .77-19.42h-.77m6.41 10a6.41 6.41 0 0 1-12.81 0v-.51a6.41 6.41 0 0 1 12.81 0v.51" transform="translate(-7 -3.64)"/><path class="cls-1" d="M44.09 25.77v-7.95h10.5v-3.17h-10.5V6.87h11.82V3.53H40.74v25.58h16.09v-3.34H44.09zm32.34-15.03h-3.87l-5.19 6.73-5.19-6.73h-3.87l7.08 9.18-7.08 9.19h3.87l5.19-6.73 5.19 6.73h3.87l-7.08-9.19 7.08-9.18z"/><path class="cls-1" d="M149.31 23.55a6.86 6.86 0 0 0-1.94-1 18.47 18.47 0 0 0-2.33-.61c-.61-.1-1.2-.24-1.76-.39a8.52 8.52 0 0 1-1.51-.56 3.31 3.31 0 0 1-1-.73 1.42 1.42 0 0 1-.37-1 1.91 1.91 0 0 1 .34-1.13 2.64 2.64 0 0 1 .85-.81 3.87 3.87 0 0 1 1.16-.47 5.24 5.24 0 0 1 1.29-.16h.24a5 5 0 0 1 3.87 2.1l2.44-1.65a7.69 7.69 0 0 0-6.31-3.28 9 9 0 0 0-2.57.35 7.73 7.73 0 0 0-2.21 1 5 5 0 0 0-1.58 1.7 4.59 4.59 0 0 0-.6 2.37 4.51 4.51 0 0 0 .54 2.33 4.28 4.28 0 0 0 1.42 1.48 8.13 8.13 0 0 0 2.08.93q1.18.36 2.49.63c.5.11 1 .23 1.46.36a5.13 5.13 0 0 1 1.26.53 3 3 0 0 1 .89.81 2.06 2.06 0 0 1 .34 1.23 2.24 2.24 0 0 1-.36 1.28 2.81 2.81 0 0 1-.95.89 4 4 0 0 1-1.32.51 6.7 6.7 0 0 1-1.32.16A5.9 5.9 0 0 1 139 28l-2.46 2a9.58 9.58 0 0 0 7.26 3.33 12.5 12.5 0 0 0 2.6-.32 7.41 7.41 0 0 0 2.37-1 5.18 5.18 0 0 0 1.68-1.8 5.35 5.35 0 0 0 .63-2.69 5.12 5.12 0 0 0-.47-2.33 4.54 4.54 0 0 0-1.3-1.58m17.22 1.52a4.46 4.46 0 0 0-1.31-1.58 7 7 0 0 0-1.94-1 17.61 17.61 0 0 0-2.33-.61 16.12 16.12 0 0 1-1.76-.39 8.91 8.91 0 0 1-1.5-.56 3.2 3.2 0 0 1-1-.73 1.43 1.43 0 0 1-.38-1 2 2 0 0 1 .34-1.13 2.74 2.74 0 0 1 .85-.81 3.83 3.83 0 0 1 1.17-.47 5.16 5.16 0 0 1 1.28-.16h.24a4.94 4.94 0 0 1 3.87 2.1l2.44-1.64a7.69 7.69 0 0 0-6.31-3.27 8.94 8.94 0 0 0-2.53.35 7.86 7.86 0 0 0-2.21 1 5.14 5.14 0 0 0-1.58 1.7 4.68 4.68 0 0 0-.59 2.37 4.62 4.62 0 0 0 .53 2.33 4.31 4.31 0 0 0 1.43 1.48 8.21 8.21 0 0 0 2.07.93q1.19.36 2.49.63c.5.11 1 .23 1.46.36a5.05 5.05 0 0 1 1.27.53 3.17 3.17 0 0 1 .89.81 2.13 2.13 0 0 1 .33 1.23 2.31 2.31 0 0 1-.35 1.28 2.9 2.9 0 0 1-1 .89 4.12 4.12 0 0 1-1.32.51 6.8 6.8 0 0 1-1.33.16 5.88 5.88 0 0 1-4.82-2.44l-2.48 2a9.6 9.6 0 0 0 7.26 3.33 11.71 11.71 0 0 0 2.6-.31 7.47 7.47 0 0 0 2.38-1 5.28 5.28 0 0 0 1.68-1.8 5.35 5.35 0 0 0 .63-2.69 5.26 5.26 0 0 0-.47-2.33M110 14.33h-3.27v18.42H110v-9.22a6.46 6.46 0 0 1 6.44-6.46v-3.28a9.74 9.74 0 0 0-6.44 2.44z" transform="translate(-7 -3.64)"/><path class="cls-2" d="M24.91 3.53h3.27v25.58h-3.27z"/><path class="cls-2" d="M20.19 7.15h-3.37L7 32.74h3.21l2.35-6.14h11.89l2.36 6.14H30zm-6.34 16.08l4.66-12.13 4.65 12.13z" transform="translate(-7 -3.64)"/><path class="cls-2" d="M32.8 10.84h3.27V29.1H32.8z"/><path class="cls-2" d="M41.44 3.64a.14.14 0 0 0-.14.14 4.78 4.78 0 0 1-4.76 4.78.15.15 0 0 0-.14.15.14.14 0 0 0 .14.14 4.78 4.78 0 0 1 4.76 4.78.15.15 0 0 0 .14.15.15.15 0 0 0 .14-.15 4.77 4.77 0 0 1 4.75-4.76.15.15 0 0 0 .15-.15.15.15 0 0 0-.15-.14 4.78 4.78 0 0 1-4.75-4.79.14.14 0 0 0-.14-.14" transform="translate(-7 -3.64)"/></svg>