<svg xmlns="http://www.w3.org/2000/svg" width="78" height="18.698"><path d="M77.859.834c-.267-.392-.589-.658-1.917-.759-.35-.027-1.5-.065-3.438-.065-5.092 0-8.549 1.545-10.321 4.594q.729-4.6-8.978-4.6-11.4 0-14.24 9.183a8.686 8.686 0 0 0-.221 5.6l-1.794.12c-1.4.106-3.247.2-4.377.2q-4.173 0-5.177-1.4c-.6-.838-.54-2.392.159-4.662 1.16-3.758 4.036-5.451 8.63-5.451 2.38 0 4.7.25 4.7.25a.523.523 0 0 0 .426-.629l-.046-.359-.163-1.264c-.106-.827-.724-1.32-1.855-1.474a39.326 39.326 0 0 0-2.929-.117h-.062Q27.25.02 23.703 5.914q1.3-5.915-8.338-5.915a67.38 67.38 0 0 0-7.693.3 2.308 2.308 0 0 0-2.18 1.48l-.509 1.624q-.14.445.432.444h.011c.284-.036 1.371-.144 3.23-.293 2.458-.2 4.28-.3 5.478-.3q5.309 0 4.476 2.658a1.023 1.023 0 0 1-.8.73q-5.021.831-7.97 1.2Q1.545 8.899.254 13.013q-1.771 5.656 8.869 5.656a55.016 55.016 0 0 0 8.907-.609c1.383-.233 2.084-.586 2.362-1.478l1.319-4.2c-.138 4.2 2.809 6.315 8.845 6.315a47.286 47.286 0 0 0 6.259-.289c1.239-.216 1.829-.484 2.1-1.418l.267-1.325q1.93 3.005 8.462 3.005 6.889 0 8.038-.384a1.607 1.607 0 0 0 1.175-.994 1.479 1.479 0 0 0 .055-.264l.552-1.784c.1-.31-.048-.458-.425-.446l-2.941.142q-2.943.162-4.608.163a14.526 14.526 0 0 1-4.3-.426 2.485 2.485 0 0 1-1.663-2.678l9.314-1.194q6.261-.8 8.38-3.855l-3.153 10.992a.5.5 0 0 0 .068.5.774.774 0 0 0 .616.205h3.856a.907.907 0 0 0 1-.641l3.406-11.862c.448-1.562 1.884-2.321 4.389-2.321 2.261 0 3.966.021 5.056.06h.086a.811.811 0 0 0 .788-.592l.6-1.629a.873.873 0 0 0-.068-.829M15.73 15.105a35.908 35.908 0 0 1-5.191.283q-5.874 0-5.133-2.372.533-1.7 3.086-2.048l8.912-1.2zm41.185-9.612q-.561 1.825-5.227 2.5l-7.423 1.053.188-.608a7.115 7.115 0 0 1 2.618-4.087q1.691-1.081 5.513-1.086 5.022 0 4.331 2.232" fill="#80c342"/></svg>