<svg xmlns="http://www.w3.org/2000/svg" width="57.797" height="38.114"><path d="M27.457 33.973c-11.423 1.056-23.327-.6-24.993-9.53-.815-4.4 1.189-9.065 3.848-11.962v-1.55c-4.786 4.2-7.384 9.514-5.89 15.794 1.91 8.052 12.126 12.615 27.719 11.1 6.17-.6 14.244-2.586 19.858-5.668v-4.376a50.711 50.711 0 0 1-14.38 5.229 52.66 52.66 0 0 1-6.163.963m30.085-23.146C54.829-2.401 29.151-3.238 12.598 6.839v1.109c16.534-8.5 39.985-8.447 42.12 3.737.717 4.029-1.554 8.23-5.608 10.645v3.159c4.879-1.789 9.884-7.577 8.431-14.663M47.075 25.37a2.92 2.92 0 0 1-2.994-3.137V8.898h2.994zm-35.656.251a2.928 2.928 0 0 1-3-3.142v-8.713h3zm-.006-13.477H8.421V9.302h2.992zm17.94 13.339a3.2 3.2 0 0 1-3.449-3.349V10.57h2.968v3.2h2.235v2.4h-2.235v5.785a.924.924 0 0 0 1.027 1.06h1.208v2.475zm5.466-4.934a2.463 2.463 0 0 0 2.628 2.637 3.342 3.342 0 0 0 2.724-1.117l1.835 1.75a5.863 5.863 0 0 1-4.581 1.865c-2.844 0-5.567-1.551-5.567-6.07 0-3.863 2.377-6.047 5.5-6.047 3.165 0 4.993 2.558 4.993 5.913v1.07zm2.41-4.525a2.277 2.277 0 0 0-2.128 1.231 3.011 3.011 0 0 0-.282 1.271h4.569c-.058-1.271-.635-2.5-2.158-2.5m-20.2.139V25.5h-2.971V13.767l6.134.007a3.25 3.25 0 0 1 3.493 3.505v8.22h-2.967v-8.2c0-.7-.362-1.131-1.234-1.131z" fill="#0071c5"/></svg>